# Blender v2.93.5 OBJ File: 'scene.blend'
# www.blender.org
mtllib scene.mtl
o Cube
v 10.000000 0.160227 -10.000000
v 10.000000 -0.160227 -10.000000
v 10.000000 0.160227 10.000000
v 10.000000 -0.160227 10.000000
v -10.000000 0.160227 -10.000000
v -10.000000 -0.160227 -10.000000
v -10.000000 0.160227 10.000000
v -10.000000 -0.160227 10.000000
v -2.108714 0.100610 2.108714
v -1.895333 0.379420 1.895333
v -2.108714 0.100610 -2.108714
v -1.895333 0.379420 -1.895333
v 2.108714 0.100610 2.108714
v 1.895333 0.379420 1.895333
v 2.108714 0.100610 -2.108714
v 1.895333 0.379420 -1.895333
v 0.000000 0.015796 -2.686319
v 0.000000 0.419641 -2.414490
v 0.000000 0.015796 2.686319
v 0.000000 0.419641 2.414490
v -2.888755 0.035753 0.000000
v -2.596441 0.417699 0.000000
v 2.888755 0.035753 0.000000
v 2.596441 0.417699 0.000000
v -0.000000 0.472797 0.000000
v 1.024913 0.409914 -2.330563
v 1.140300 0.040764 2.592943
v 1.140300 0.040764 -2.592943
v 1.024913 0.409914 2.330563
v 1.404041 0.459358 0.000000
v -1.140300 0.040764 -2.592943
v -1.024913 0.409914 2.330563
v -1.024913 0.409914 -2.330563
v -1.140300 0.040764 2.592943
v -1.404041 0.459358 0.000000
v -2.500946 0.407335 -1.055290
v 2.782509 0.039438 -1.174097
v -2.782509 0.039438 -1.174097
v 2.500946 0.407335 -1.055290
v -0.000000 0.460408 -1.344348
v 1.352402 0.447509 -1.297619
v -1.352402 0.447509 -1.297619
v -2.782509 0.039438 1.174097
v 2.500946 0.407335 1.055290
v -0.000000 0.460408 1.344348
v -2.500946 0.407335 1.055290
v 2.782509 0.039438 1.174097
v 1.352402 0.447509 1.297619
v -1.352402 0.447509 1.297619
v -6.344483 0.112914 -4.588905
v -6.169063 0.396166 -4.812872
v -6.334992 0.100610 -8.777015
v -6.156146 0.379420 -8.563633
v -3.241835 0.124023 -5.689339
v -3.420681 0.402833 -5.902720
v -2.800140 0.100610 -8.777015
v -2.978986 0.379420 -8.563633
v -4.567566 0.015796 -9.354620
v -4.567566 0.419641 -9.082790
v -4.786073 0.259897 -4.686257
v -4.769544 0.615885 -4.903848
v -6.988786 0.035753 -6.668301
v -6.743782 0.417699 -6.668301
v -2.247214 0.138537 -6.947797
v -2.515926 0.527441 -7.011766
v -4.593423 0.493318 -6.768959
v -3.708532 0.409914 -8.998863
v -3.953880 0.161636 -5.023420
v -3.611820 0.040764 -9.261244
v -4.065251 0.515203 -5.311581
v -3.509115 0.500056 -6.992781
v -5.523313 0.040764 -9.261244
v -5.535281 0.550807 -4.673472
v -5.426600 0.409914 -8.998863
v -5.638840 0.190534 -4.432244
v -5.744368 0.459358 -6.668301
v -6.663743 0.407335 -7.723591
v -2.235396 0.039438 -7.842398
v -6.899735 0.039438 -7.842398
v -2.471530 0.407518 -7.724026
v -4.567566 0.460408 -8.012649
v -3.434046 0.447509 -7.965919
v -5.701086 0.447509 -7.965919
v -6.899735 0.039438 -5.494204
v -2.806028 0.533902 -6.494991
v -4.711015 0.527184 -5.776455
v -6.663743 0.407335 -5.613010
v -2.558463 0.183862 -6.341806
v -3.805642 0.538003 -6.364824
v -5.711727 0.461304 -5.403554
v -1.980412 0.564846 -0.889546
v -1.980412 0.891368 -0.889546
v -4.905478 0.564846 -5.532736
v -4.905478 0.891368 -5.532736
v -0.288206 0.564846 -1.955584
v -0.288206 0.891368 -1.955584
v -3.213272 0.564846 -6.598773
v -3.213272 0.891368 -6.598773
vt 0.017267 0.848082
vt 0.014448 0.096578
vt 0.752921 0.015965
vt 0.755741 0.767469
vt 0.770046 0.782826
vt 0.770046 0.000143
vt 0.000143 0.081221
vt 0.000143 0.863904
vt 0.785221 0.416303
vt 0.770332 0.429490
vt 0.770332 0.218453
vt 0.782629 0.237555
vt 0.873480 0.228309
vt 0.858591 0.241496
vt 0.873480 0.439346
vt 0.861183 0.420244
vt 0.950392 0.228309
vt 0.950392 0.439346
vt 0.770332 0.140538
vt 0.787939 0.135837
vt 0.805355 0.170053
vt 0.792557 0.179813
vt 0.916827 0.217897
vt 0.912066 0.200202
vt 0.946626 0.188407
vt 0.956506 0.201112
vt 0.999857 0.077772
vt 0.982250 0.082473
vt 0.964833 0.048256
vt 0.977632 0.038496
vt 0.853361 0.000413
vt 0.858122 0.018108
vt 0.823563 0.029903
vt 0.813683 0.017197
vt 0.941411 0.067818
vt 0.891546 0.059496
vt 0.896741 0.019503
vt 0.934435 0.028022
vt 0.841209 0.054801
vt 0.797982 0.058534
vt 0.943559 0.012131
vt 0.899256 0.000143
vt 0.826630 0.206179
vt 0.835754 0.190288
vt 0.873447 0.198806
vt 0.870932 0.218166
vt 0.828778 0.150491
vt 0.789150 0.096690
vt 0.833211 0.102414
vt 0.928979 0.163508
vt 0.878643 0.158813
vt 0.885094 0.109155
vt 0.936978 0.115895
vt 0.988028 0.168819
vt 0.972207 0.159776
vt 0.981039 0.121619
vt 0.999857 0.124064
vt 0.782160 0.049490
vt 0.770332 0.094245
vt 0.924714 0.455039
vt 0.915767 0.470326
vt 0.882691 0.454960
vt 0.884223 0.439633
vt 0.784808 0.483172
vt 0.799122 0.493432
vt 0.785382 0.521635
vt 0.770592 0.517549
vt 0.814719 0.604699
vt 0.822353 0.588354
vt 0.854292 0.597672
vt 0.852122 0.613562
vt 0.959188 0.596339
vt 0.945457 0.586521
vt 0.962957 0.569849
vt 0.978077 0.573936
vt 0.856899 0.573213
vt 0.898069 0.571385
vt 0.918944 0.595555
vt 0.889087 0.600269
vt 0.936141 0.561020
vt 0.960655 0.534782
vt 0.891696 0.618947
vt 0.926710 0.609618
vt 0.846914 0.440538
vt 0.851343 0.457619
vt 0.823478 0.472989
vt 0.812628 0.457176
vt 0.881433 0.483215
vt 0.941234 0.500434
vt 0.910344 0.521930
vt 0.812007 0.530640
vt 0.845880 0.505675
vt 0.872978 0.543460
vt 0.834354 0.559070
vt 0.770332 0.560655
vt 0.787746 0.557877
vt 0.803991 0.578153
vt 0.790497 0.590421
vt 0.978077 0.531671
vt 0.956191 0.490015
vn 0.0000 1.0000 0.0000
vn 0.0000 0.0000 1.0000
vn -1.0000 0.0000 0.0000
vn 1.0000 0.0000 0.0000
vn 0.0000 0.0000 -1.0000
vn -0.8461 0.0000 0.5330
vn -0.5330 0.0000 -0.8461
vn 0.8461 0.0000 -0.5330
vn 0.5330 0.0000 0.8461
vn 0.0000 -1.0000 0.0000
vn -0.7084 0.6589 -0.2529
vn -0.4560 0.8746 -0.1647
vn -0.3100 0.8756 -0.3703
vn -0.4787 0.6819 -0.5530
vn 0.2024 0.6269 -0.7523
vn 0.1254 0.8698 -0.4771
vn 0.3100 0.8756 -0.3703
vn 0.4787 0.6819 -0.5530
vn 0.7084 0.6589 0.2529
vn 0.4560 0.8746 0.1647
vn 0.3100 0.8756 0.3703
vn 0.4787 0.6819 0.5530
vn -0.2024 0.6269 0.7523
vn -0.1254 0.8698 0.4771
vn -0.3100 0.8756 0.3703
vn -0.4787 0.6819 0.5530
vn 0.0310 0.9989 0.0334
vn 0.0000 0.9997 0.0245
vn 0.0000 0.8692 0.4945
vn 0.1254 0.8698 0.4771
vn -0.0310 0.9989 0.0334
vn -0.4560 0.8746 0.1647
vn 0.2024 0.6269 0.7523
vn 0.0000 0.5748 0.8182
vn -0.2024 0.6269 -0.7523
vn -0.1254 0.8698 -0.4771
vn 0.0000 0.8692 -0.4945
vn 0.0000 0.5748 -0.8182
vn -0.0310 0.9989 -0.0334
vn -0.4726 0.8813 0.0000
vn -0.0233 0.9997 0.0000
vn 0.0310 0.9989 -0.0334
vn 0.0000 0.9997 -0.0245
vn 0.0233 0.9997 0.0000
vn 0.7084 0.6589 -0.2529
vn 0.4560 0.8746 -0.1647
vn 0.4726 0.8813 0.0000
vn 0.7885 0.6150 0.0000
vn -0.7084 0.6589 0.2529
vn -0.7885 0.6150 0.0000
vn -0.7620 0.6012 -0.2406
vn -0.4964 0.8551 -0.1493
vn -0.3611 0.8626 -0.3543
vn -0.5296 0.6520 -0.5426
vn 0.2302 0.6194 -0.7505
vn 0.1524 0.8651 -0.4777
vn 0.3611 0.8625 -0.3544
vn 0.5296 0.6519 -0.5427
vn 0.6044 0.6401 0.4743
vn 0.3567 0.8919 0.2780
vn 0.3568 0.8468 0.3944
vn 0.5102 0.6606 0.5507
vn -0.0872 0.6047 0.7917
vn -0.0451 0.8726 0.4864
vn -0.3699 0.8425 0.3916
vn -0.5029 0.6561 0.5626
vn 0.0341 0.9992 0.0196
vn -0.0269 0.9987 -0.0416
vn 0.1660 0.8919 0.4206
vn 0.3153 0.8774 0.3616
vn -0.0921 0.9954 -0.0273
vn -0.5086 0.8496 0.1393
vn 0.4842 0.6141 0.6232
vn 0.3036 0.5334 0.7895
vn -0.2302 0.6194 -0.7505
vn -0.1524 0.8651 -0.4777
vn 0.0000 0.8674 -0.4975
vn -0.0394 0.9986 -0.0358
vn -0.5110 0.8596 -0.0015
vn -0.0417 0.9991 -0.0103
vn 0.0287 0.9977 -0.0605
vn -0.0053 0.9994 -0.0339
vn -0.0258 0.9991 -0.0326
vn -0.0052 0.9983 -0.0576
vn 0.7555 0.6089 -0.2419
vn 0.5112 0.8422 -0.1714
vn 0.4822 0.8737 0.0632
vn 0.7926 0.5918 0.1464
vn -0.7634 0.6002 0.2386
vn -0.8370 0.5472 0.0000
usemtl Water
s off
f 1/1/1 5/2/1 7/3/1 3/4/1
f 4/5/2 3/4/2 7/3/2 8/6/2
f 8/6/3 7/3/3 5/2/3 6/7/3
f 2/8/4 1/1/4 3/4/4 4/5/4
f 6/7/5 5/2/5 1/1/5 2/8/5
f 91/9/6 92/10/6 94/11/6 93/12/6
f 93/12/7 94/11/7 98/13/7 97/14/7
f 97/14/8 98/13/8 96/15/8 95/16/8
f 95/16/9 96/15/9 92/10/9 91/9/9
f 93/12/10 97/14/10 95/16/10 91/9/10
f 98/13/1 94/17/1 92/18/1 96/15/1
s 1
f 38/19/11 36/20/12 12/21/13 11/22/14
f 28/23/15 26/24/16 16/25/17 15/26/18
f 47/27/19 44/28/20 14/29/21 13/30/22
f 34/31/23 32/32/24 10/33/25 9/34/26
f 48/35/27 45/36/28 20/37/29 29/38/30
f 49/39/31 46/40/32 10/33/25 32/32/24
f 27/41/33 29/38/30 20/37/29 19/42/34
f 31/43/35 33/44/36 18/45/37 17/46/38
f 42/47/39 36/20/12 22/48/40 35/49/41
f 41/50/42 40/51/43 25/52/1 30/53/44
f 37/54/45 39/55/46 24/56/47 23/57/48
f 43/58/49 46/40/32 22/48/40 21/59/50
f 39/55/46 41/50/42 30/53/44 24/56/47
f 13/30/22 14/29/21 29/38/30 27/41/33
f 44/28/20 48/35/27 29/38/30 14/29/21
f 17/46/38 18/45/37 26/24/16 28/23/15
f 40/51/43 42/47/39 35/49/41 25/52/1
f 11/22/14 12/21/13 33/44/36 31/43/35
f 45/36/28 49/39/31 32/32/24 20/37/29
f 19/42/34 20/37/29 32/32/24 34/31/23
f 18/45/37 33/44/36 42/47/39 40/51/43
f 16/25/17 26/24/16 41/50/42 39/55/46
f 15/26/18 16/25/17 39/55/46 37/54/45
f 26/24/16 18/45/37 40/51/43 41/50/42
f 33/44/36 12/21/13 36/20/12 42/47/39
f 21/59/50 22/48/40 36/20/12 38/19/11
f 25/52/1 35/49/41 49/39/31 45/36/28
f 24/56/47 30/53/44 48/35/27 44/28/20
f 9/34/26 10/33/25 46/40/32 43/58/49
f 35/49/41 22/48/40 46/40/32 49/39/31
f 30/53/44 25/52/1 45/36/28 48/35/27
f 23/57/48 24/56/47 44/28/20 47/27/19
f 79/60/51 77/61/52 53/62/53 52/63/54
f 69/64/55 67/65/56 57/66/57 56/67/58
f 88/68/59 85/69/60 55/70/61 54/71/62
f 75/72/63 73/73/64 51/74/65 50/75/66
f 89/76/67 86/77/68 61/78/69 70/79/70
f 90/80/71 87/81/72 51/74/65 73/73/64
f 68/82/73 70/79/70 61/78/69 60/83/74
f 72/84/75 74/85/76 59/86/77 58/87/38
f 83/88/78 77/61/52 63/89/79 76/90/80
f 82/91/81 81/92/82 66/93/83 71/94/84
f 78/95/85 80/96/86 65/97/87 64/98/88
f 84/99/89 87/81/72 63/89/79 62/100/90
f 80/96/86 82/91/81 71/94/84 65/97/87
f 54/71/62 55/70/61 70/79/70 68/82/73
f 85/69/60 89/76/67 70/79/70 55/70/61
f 58/87/38 59/86/77 67/65/56 69/64/55
f 81/92/82 83/88/78 76/90/80 66/93/83
f 52/63/54 53/62/53 74/85/76 72/84/75
f 86/77/68 90/80/71 73/73/64 61/78/69
f 60/83/74 61/78/69 73/73/64 75/72/63
f 59/86/77 74/85/76 83/88/78 81/92/82
f 57/66/57 67/65/56 82/91/81 80/96/86
f 56/67/58 57/66/57 80/96/86 78/95/85
f 67/65/56 59/86/77 81/92/82 82/91/81
f 74/85/76 53/62/53 77/61/52 83/88/78
f 62/100/90 63/89/79 77/61/52 79/60/51
f 66/93/83 76/90/80 90/80/71 86/77/68
f 65/97/87 71/94/84 89/76/67 85/69/60
f 50/75/66 51/74/65 87/81/72 84/99/89
f 76/90/80 63/89/79 87/81/72 90/80/71
f 71/94/84 66/93/83 86/77/68 89/76/67
f 64/98/88 65/97/87 85/69/60 88/68/59
